# xmcd
#
# Track frame offsets: 
#        150
#        14713
#        31443
#        47574
#        67666
#        89722
#        106142
#        117573
#        137407
#        159215
#        177730
#        195059
#        213092
#        227522
#        257235
#
# Disc length: 3676 seconds
#
# Revision: 2
# Processed by: cddbd v1.5.2PL0 Copyright (c) Steve Scherf et al.
# Submitted via: ExactAudioCopy v1.3
#
DISCID=c20e5a0f
DTITLE=Bayer Full - www.psl.org.pl
DYEAR=2007
DGENRE=Disco Polo
TTITLE0=Blondyneczka
TTITLE1=W moim ogródeczku
TTITLE2=Bayer Full and Jesi - Pusta Plaża
TTITLE3=Hej Sokoły
TTITLE4=Bayer Full and Jesi - Ty Polsko wiesz
TTITLE5=Lipka zielona
TTITLE6=Osiemnastolatka
TTITLE7=Sławomir Świerzyński - Serce me zabrałeś
TTITLE8=Cyganeczka Janeczka
TTITLE9=Bayer Full and Jesi - Nie odkładaj
TTITLE10=Złotowłosa Anna
TTITLE11=My Cyganie
TTITLE12=Wianki i róże
TTITLE13=Wszyscy Polacy
TTITLE14=Data
EXTD=
EXTT0=
EXTT1=
EXTT2=
EXTT3=
EXTT4=
EXTT5=
EXTT6=
EXTT7=
EXTT8=
EXTT9=
EXTT10=
EXTT11=
EXTT12=
EXTT13=
EXTT14=
PLAYORDER=
